<svg width="30" height="30" viewBox="0 0 30 30" fill="none" xmlns="http://www.w3.org/2000/svg">
<g clip-path="url(#clip0_11_458)">
<path d="M29.6812 15.3375C29.6812 14.35 29.5937 13.4125 29.4437 12.5H15.3187V18.1375H23.4062C23.0437 19.9875 21.9812 21.55 20.4062 22.6125V26.3625H25.2312C28.0562 23.75 29.6812 19.9 29.6812 15.3375Z" fill="#4285F4"/>
<path d="M15.3187 30C19.3687 30 22.7562 28.65 25.2312 26.3625L20.4062 22.6125C19.0562 23.5125 17.3437 24.0625 15.3187 24.0625C11.4062 24.0625 8.09372 21.425 6.90622 17.8625H1.93121V21.725C4.39371 26.625 9.45621 30 15.3187 30Z" fill="#34A853"/>
<path d="M6.90623 17.8625C6.59373 16.9625 6.43122 16 6.43122 15C6.43122 14 6.60623 13.0375 6.90623 12.1375V8.27502H1.93122C0.906224 10.3 0.318726 12.575 0.318726 15C0.318726 17.425 0.906224 19.7 1.93122 21.725L6.90623 17.8625Z" fill="#FBBC05"/>
<path d="M15.3187 5.9375C17.5312 5.9375 19.5062 6.7 21.0687 8.1875L25.3437 3.9125C22.7562 1.4875 19.3687 0 15.3187 0C9.45621 0 4.39371 3.375 1.93121 8.275L6.90622 12.1375C8.09372 8.575 11.4062 5.9375 15.3187 5.9375Z" fill="#EA4335"/>
</g>
<defs>
<clipPath id="clip0_11_458">
<rect width="30" height="30" fill="white"/>
</clipPath>
</defs>
</svg>
