<svg width="32" height="32" viewBox="0 0 32 32" fill="none" xmlns="http://www.w3.org/2000/svg">
<path d="M14.334 14.3336C13.7291 14.9384 13.7291 15.9187 14.334 16.5231C14.9383 17.1279 15.9191 17.1279 16.5235 16.5231C17.1283 15.9183 17.1283 14.9379 16.5235 14.3336C15.9186 13.7292 14.9383 13.7292 14.334 14.3336ZM15.4285 3.42859C8.80089 3.42859 3.42847 8.80101 3.42847 15.4286C3.42847 22.0562 8.80089 27.4286 15.4285 27.4286C22.056 27.4286 27.4285 22.0562 27.4285 15.4286C27.4285 8.80101 22.056 3.42859 15.4285 3.42859ZM21.532 10.5923L18.3399 17.577C18.1855 17.9148 17.9146 18.1856 17.5769 18.34L10.5927 21.5321C9.78701 21.9004 8.95669 21.07 9.32492 20.2644L12.5175 13.2797C12.6719 12.9419 12.9428 12.6711 13.2806 12.5167L20.2648 9.32456C21.0704 8.95681 21.9002 9.78665 21.532 10.5923Z" fill="white" fill-opacity="0.5"/>
</svg>
